# xmcd
#
# Track frame offsets: 
#        150
#        41890
#        90841
#        129633
#        156026
#        214234
#        223614
#        250755
#        265921
#        294214
#
# Disc length: 4378 seconds
#
# Revision: 0
# Processed by: cddbd v1.5.2PL0 Copyright (c) Steve Scherf et al.
# Submitted via: ExactAudioCopy v1.0b1
#
DISCID=8c11180a
DTITLE=Quatuor Talich  - Beethoven  Integrale des Quatuors a Cordes CD
DTITLE=5
DYEAR=2010
DGENRE=Classical
TTITLE0=Quartet In E Minor, Op.59 No.2: 1. Allegro 
TTITLE1=Quartet In E Minor, Op.59 No.2: 2. Molto adagio
TTITLE2=Quartet In E Minor, Op.59 No.2: 3. Allegretto
TTITLE3=Quartet In E Minor, Op.59 No.2: 4. Finale. Presto
TTITLE4=Quartet In B Flat Major, Op. 130: 1. Adagio ma non troppo - Al
TTITLE4=legro
TTITLE5=Quartet In B Flat Major, Op. 130: 2. Presto 
TTITLE6=Quartet In B Flat Major, Op. 130: 3. Andante con moto ma non t
TTITLE6=roppo. Poco Scherzando
TTITLE7=Quartet In B Flat Major, Op. 130: 4. Alla danza tedesca. Alleg
TTITLE7=ro assai
TTITLE8=Quartet In B Flat Major, Op. 130: Cavatina. Adagio molto espre
TTITLE8=ssivo 
TTITLE9=Quartet In B Flat Major, Op. 130: Finale. Allegro
EXTD=
EXTT0=
EXTT1=
EXTT2=
EXTT3=
EXTT4=
EXTT5=
EXTT6=
EXTT7=
EXTT8=
EXTT9=
PLAYORDER=
